<?xml version="1.0" standalone="no"?>
<!DOCTYPE svg PUBLIC "-//W3C//DTD SVG 20010904//EN"
 "http://www.w3.org/TR/2001/REC-SVG-20010904/DTD/svg10.dtd">
<svg version="1.0" xmlns="http://www.w3.org/2000/svg"
 width="165.000000pt" height="53.000000pt" viewBox="0 0 165.000000 53.000000"
 preserveAspectRatio="xMidYMid meet">

<g transform="translate(0.000000,53.000000) scale(0.100000,-0.100000)"
fill="#000000" stroke="none">
<path d="M30 470 c0 -11 6 -20 14 -20 9 0 12 7 9 20 -3 11 -9 20 -14 20 -5 0
-9 -9 -9 -20z"/>
<path d="M857 473 c-12 -12 -8 -168 5 -181 8 -8 43 -11 103 -10 l90 2 -87 3
c-106 4 -111 10 -106 119 2 41 3 74 2 74 0 0 -4 -3 -7 -7z"/>
<path d="M312 378 c-2 -96 -2 -98 21 -97 16 1 17 3 5 6 -14 4 -18 20 -21 96
l-3 92 -2 -97z"/>
<path d="M470 441 c0 -6 5 -13 10 -16 6 -3 10 1 10 9 0 9 -4 16 -10 16 -5 0
-10 -4 -10 -9z"/>
<path d="M582 368 c-2 -85 -1 -88 21 -87 16 1 17 3 5 6 -14 4 -18 19 -21 86
l-3 82 -2 -87z"/>
<path d="M813 390 c0 -36 2 -50 4 -32 2 17 2 47 0 65 -2 17 -4 3 -4 -33z"/>
<path d="M388 363 c6 -2 18 -2 25 0 6 3 1 5 -13 5 -14 0 -19 -2 -12 -5z"/>
<path d="M471 325 c-2 -41 0 -45 21 -44 13 0 17 3 11 6 -8 2 -13 22 -13 44 0
54 -16 49 -19 -6z"/>
<path d="M699 342 c10 -19 37 -44 61 -57 8 -4 -3 11 -25 34 -43 45 -51 50 -36
23z"/>
<path d="M41 303 c-1 -23 1 -23 102 -21 l102 2 -97 3 c-81 3 -97 6 -101 21 -3
12 -5 11 -6 -5z"/>
<path d="M857 213 c-12 -12 -8 -168 5 -181 8 -8 43 -11 103 -10 l90 2 -87 3
c-106 4 -111 10 -106 119 2 41 3 74 2 74 0 0 -4 -3 -7 -7z"/>
<path d="M1127 213 c-4 -3 -7 -48 -7 -100 0 -90 1 -93 23 -92 17 1 18 2 4 6
-16 4 -18 15 -15 99 2 52 3 94 2 94 0 0 -4 -3 -7 -7z"/>
<path d="M38 190 c-4 -14 -8 -58 -8 -97 0 -69 1 -73 23 -73 14 0 18 3 10 8 -8
5 -13 41 -15 97 -2 59 -6 81 -10 65z"/>
<path d="M312 118 c-2 -96 -2 -98 21 -97 16 1 17 3 5 6 -14 4 -18 20 -21 96
l-3 92 -2 -97z"/>
<path d="M1392 124 c-1 -51 2 -84 10 -92 8 -8 41 -11 93 -10 l80 2 -75 3 c-41
2 -79 8 -85 14 -5 5 -13 45 -16 87 l-6 77 -1 -81z"/>
<path d="M476 175 c4 -8 8 -15 10 -15 2 0 4 7 4 15 0 8 -4 15 -10 15 -5 0 -7
-7 -4 -15z"/>
<path d="M1291 174 c0 -11 3 -14 6 -6 3 7 2 16 -1 19 -3 4 -6 -2 -5 -13z"/>
<path d="M582 85 c-3 -59 8 -65 113 -63 l90 2 -85 3 c-46 2 -90 9 -96 14 -7 6
-15 27 -17 47 l-4 37 -1 -40z"/>
<path d="M388 103 c7 -3 16 -2 19 1 4 3 -2 6 -13 5 -11 0 -14 -3 -6 -6z"/>
<path d="M470 65 c0 -40 2 -45 23 -44 12 0 16 3 10 6 -8 2 -13 22 -13 44 0 21
-4 39 -10 39 -5 0 -10 -20 -10 -45z"/>
<path d="M1288 65 c4 -39 7 -45 26 -44 16 1 17 2 4 6 -13 3 -18 15 -18 44 0
21 -3 39 -8 39 -4 0 -6 -20 -4 -45z"/>
<path d="M1562 90 c0 -14 2 -19 5 -12 2 6 2 18 0 25 -3 6 -5 1 -5 -13z"/>
</g>
</svg>
