<?xml version="1.0" standalone="no"?>
<!DOCTYPE svg PUBLIC "-//W3C//DTD SVG 20010904//EN"
 "http://www.w3.org/TR/2001/REC-SVG-20010904/DTD/svg10.dtd">
<svg version="1.0" xmlns="http://www.w3.org/2000/svg"
 width="158.000000pt" height="56.000000pt" viewBox="0 0 158.000000 56.000000"
 preserveAspectRatio="xMidYMid meet">

<g transform="translate(0.000000,56.000000) scale(0.100000,-0.100000)"
fill="#000000" stroke="none">
<path d="M21 513 c2 -24 2 -24 6 -6 4 21 10 23 106 26 l102 3 -107 2 -108 2 1
-27z"/>
<path d="M292 528 c-8 -8 -11 -45 -10 -112 l2 -101 3 94 c2 52 9 101 14 108 7
7 43 14 92 16 l82 3 -85 2 c-56 1 -90 -2 -98 -10z"/>
<path d="M544 527 c-2 -7 -3 -58 -1 -113 l3 -99 2 107 c1 74 6 108 15 111 9 4
9 6 -1 6 -7 1 -15 -5 -18 -12z"/>
<path d="M712 468 l2 -73 3 67 c4 59 6 67 26 71 18 4 17 5 -5 6 l-28 1 2 -72z"/>
<path d="M816 524 c-12 -12 -16 -34 -14 -97 l2 -82 3 82 c2 49 9 85 16 92 7 5
56 12 108 14 l94 3 -97 2 c-76 2 -100 -1 -112 -14z"/>
<path d="M82 417 c-34 -34 -62 -68 -62 -74 0 -6 30 20 67 58 36 38 64 71 62
74 -3 2 -33 -24 -67 -58z"/>
<path d="M400 450 l-55 -7 58 -1 c32 -1 57 2 57 8 0 6 -1 9 -2 8 -2 -1 -28 -4
-58 -8z"/>
<path d="M869 447 c4 -4 41 -7 82 -5 l74 3 -82 5 c-45 3 -78 1 -74 -3z"/>
<path d="M36 254 c-13 -12 -16 -36 -14 -112 l2 -97 3 94 c2 52 9 101 14 108 7
8 45 13 107 16 l97 3 -97 2 c-76 2 -100 -1 -112 -14z"/>
<path d="M296 254 c-13 -12 -16 -36 -14 -112 l2 -97 3 94 c2 52 9 101 14 108
7 7 43 14 92 16 l82 3 -82 2 c-63 2 -85 -2 -97 -14z"/>
<path d="M542 168 l2 -103 3 97 c3 81 6 97 21 101 12 3 11 5 -5 6 -23 1 -23
-1 -21 -101z"/>
<path d="M816 254 c-12 -12 -16 -34 -14 -97 l2 -82 3 82 c2 49 9 85 16 92 7 5
56 12 108 14 l94 3 -97 2 c-76 2 -100 -1 -112 -14z"/>
<path d="M1076 254 c-13 -12 -16 -36 -14 -112 l2 -97 3 94 c2 52 9 101 14 108
7 7 43 14 92 16 l82 3 -82 2 c-63 2 -85 -2 -97 -14z"/>
<path d="M1336 254 c-12 -12 -16 -34 -14 -97 l2 -82 3 82 c2 49 9 85 16 92 7
5 49 12 92 14 l80 3 -82 2 c-63 2 -85 -2 -97 -14z"/>
<path d="M1129 177 c4 -5 32 -7 62 -5 l54 3 -62 5 c-34 3 -58 1 -54 -3z"/>
<path d="M1382 165 c0 -16 2 -22 5 -12 2 9 2 23 0 30 -3 6 -5 -1 -5 -18z"/>
<path d="M128 173 c23 -2 59 -2 80 0 20 2 1 4 -43 4 -44 0 -61 -2 -37 -4z"/>
<path d="M378 173 c18 -2 45 -2 60 0 15 2 0 4 -33 4 -33 0 -45 -2 -27 -4z"/>
</g>
</svg>
